<?xml version="1.0" standalone="no"?>
<!DOCTYPE svg PUBLIC "-//W3C//DTD SVG 20010904//EN"
 "http://www.w3.org/TR/2001/REC-SVG-20010904/DTD/svg10.dtd">
<svg version="1.0" xmlns="http://www.w3.org/2000/svg"
 width="879.000000pt" height="284.000000pt" viewBox="0 0 879.000000 284.000000"
 preserveAspectRatio="xMidYMid meet">

<g transform="translate(0.000000,284.000000) scale(0.100000,-0.100000)"
fill="#000000" stroke="none">
<path d="M740 2350 c-144 -30 -283 -158 -336 -310 -18 -52 -19 -90 -19 -620 0
-557 0 -566 22 -622 64 -167 200 -282 364 -307 35 -5 310 -12 611 -16 l547 -7
18 22 c10 12 42 33 72 48 70 35 159 123 194 194 55 112 58 150 55 727 -3 516
-4 527 -26 585 -59 159 -182 270 -333 305 -51 12 -1114 13 -1169 1z m913 -539
l177 -179 0 -231 0 -231 -140 0 -140 0 0 200 0 200 59 0 c65 0 86 -12 103 -62
16 -45 28 -32 28 30 0 59 -12 94 -24 73 -9 -14 -392 -15 -401 -1 -3 6 -12 10
-18 9 -9 0 -9 -2 0 -6 10 -3 10 -10 1 -26 -9 -17 -8 -23 5 -31 14 -9 14 -11
-1 -23 -9 -7 -12 -13 -6 -13 6 0 23 11 38 25 23 21 37 25 87 25 l59 0 0 -199
0 -198 -76 -1 c-42 0 -81 -6 -90 -13 -11 -9 -14 -43 -14 -162 0 -142 -1 -149
-17 -135 -10 8 -40 23 -68 33 -27 10 -82 33 -121 50 -82 38 -130 50 -138 36
-4 -6 -27 -8 -56 -4 -33 4 -55 2 -65 -7 -13 -11 -15 43 -15 504 l0 516 328 0
328 0 177 -179z m291 -667 c3 -9 6 -45 6 -80 l0 -64 -315 0 -315 0 0 80 0 80
309 0 c272 0 310 -2 315 -16z m4 -398 c2 -167 -1 -243 -9 -252 -9 -11 -60 -14
-250 -14 l-239 0 -1 23 c-1 12 -2 43 -3 69 0 25 -4 49 -8 53 -4 4 -4 -2 -1
-14 5 -20 2 -21 -92 -21 -86 0 -96 2 -93 18 2 11 14 18 36 20 17 2 32 8 32 13
0 6 -12 8 -27 5 -16 -3 -68 -12 -118 -21 -49 -8 -108 -20 -130 -25 -22 -5 -56
-10 -76 -10 -40 0 -146 49 -175 81 -17 19 -14 19 40 -5 33 -15 74 -36 93 -47
23 -15 37 -18 46 -11 7 6 79 22 162 37 82 14 152 28 154 31 2 2 10 -1 18 -7
11 -10 13 17 13 155 l0 166 313 -2 312 -3 3 -239z m-1078 16 l85 -47 60 12
c120 24 265 37 276 26 13 -13 -123 -39 -258 -48 -92 -6 -92 -6 -162 30 -64 34
-116 75 -95 75 5 0 47 -21 94 -48z m568 -209 c-3 -16 -15 -18 -93 -18 -78 0
-90 2 -93 18 -3 15 7 17 93 17 86 0 96 -2 93 -17z m0 -50 c3 -10 -20 -13 -92
-13 -80 0 -96 3 -96 15 0 13 15 15 92 13 62 -2 93 -7 96 -15z"/>
<path d="M930 1610 c0 -5 9 -10 19 -10 47 0 51 -18 51 -230 0 -212 -4 -230
-51 -230 -10 0 -19 -4 -19 -10 0 -6 37 -10 93 -10 84 1 90 2 72 16 -19 14 -20
27 -20 230 0 231 1 233 53 234 12 0 22 5 22 10 0 6 -43 10 -110 10 -67 0 -110
-4 -110 -10z"/>
<path d="M1294 1495 c-16 -12 -17 -14 -3 -15 9 0 19 7 23 15 7 19 5 19 -20 0z"/>
<path d="M1210 1209 c0 -5 5 -7 10 -4 6 3 10 8 10 11 0 2 -4 4 -10 4 -5 0 -10
-5 -10 -11z"/>
<path d="M1532 1078 l3 -33 95 0 95 0 3 33 3 32 -101 0 -101 0 3 -32z m188 2
c0 -19 -7 -20 -90 -20 -83 0 -90 1 -90 20 0 19 7 20 90 20 83 0 90 -1 90 -20z"/>
<path d="M1464 1089 c-10 -17 13 -36 27 -22 12 12 4 33 -11 33 -5 0 -12 -5
-16 -11z"/>
<path d="M1765 1090 c-8 -14 3 -30 21 -30 8 0 14 9 14 20 0 21 -24 28 -35 10z"/>
<path d="M1825 1090 c-4 -7 -3 -16 3 -22 14 -14 45 -2 40 15 -6 16 -34 21 -43
7z"/>
<path d="M1540 908 c-50 -25 -85 -71 -101 -130 -19 -72 16 -158 84 -205 34
-24 50 -28 107 -28 56 0 73 4 109 28 57 38 96 119 88 184 -10 94 -100 173
-197 173 -28 0 -63 -9 -90 -22z m164 -2 c46 -19 90 -68 71 -78 -9 -5 -23 1
-41 17 -76 70 -190 50 -238 -43 -47 -91 11 -200 113 -210 64 -6 89 1 124 33
19 19 32 23 43 17 13 -7 9 -15 -26 -45 -102 -87 -251 -44 -294 85 -22 65 -11
120 34 172 55 63 140 83 214 52z m-16 -46 c51 -23 56 -33 38 -84 -10 -28 -11
-48 -4 -70 5 -17 12 -38 15 -47 7 -24 -55 -59 -107 -59 -55 0 -96 25 -120 75
-24 50 -25 63 -4 114 16 41 47 67 93 81 38 12 42 11 89 -10z m121 -71 c14 -39
14 -54 0 -101 -12 -44 -21 -47 -54 -13 -33 32 -34 89 -3 122 29 31 44 29 57
-8z"/>
<path d="M3290 1803 c-52 -8 -101 -17 -108 -19 -7 -2 -24 -27 -37 -56 l-24
-53 6 57 6 57 -49 -5 c-27 -3 -87 -9 -133 -12 l-84 -7 -20 -73 c-25 -95 -34
-85 -12 13 9 42 15 78 13 81 -4 4 -210 -24 -215 -29 -1 -1 -20 -97 -42 -212
-46 -242 -71 -360 -99 -462 -11 -40 -18 -73 -16 -73 1 0 15 5 31 11 47 18 126
30 132 20 4 -5 52 -5 116 1 83 6 113 13 123 25 11 15 12 15 12 -5 0 -22 3 -23
81 -20 88 3 85 2 114 68 l15 35 -6 -54 -6 -54 43 6 c24 3 59 9 77 13 26 5 32
3 32 -11 0 -13 6 -16 23 -12 12 3 64 11 115 18 l92 12 19 60 c26 87 39 83 28
-8 -5 -42 -7 -78 -4 -81 2 -3 54 3 115 12 l110 18 6 100 c3 56 9 187 12 291 4
105 10 179 13 165 5 -19 16 -27 49 -34 35 -8 41 -13 37 -30 -3 -12 -11 -61
-20 -111 -8 -49 -30 -163 -49 -252 -39 -190 -51 -174 111 -146 l102 17 6 50
c20 162 65 427 77 449 8 16 38 25 38 11 0 -15 -64 -322 -91 -433 -16 -68 -28
-126 -26 -128 2 -2 19 3 38 11 53 22 159 32 169 16 7 -11 24 -11 97 0 127 18
129 19 138 82 l9 53 9 -57 10 -58 125 0 c105 0 129 -3 145 -17 15 -14 37 -18
101 -18 71 0 87 4 128 28 85 51 117 109 153 281 l23 111 1 -95 c0 -65 -7 -129
-23 -202 -13 -60 -21 -108 -17 -108 3 0 51 7 106 15 55 8 105 15 111 15 7 0
22 42 34 93 23 92 44 142 179 420 40 82 70 152 66 155 -11 11 -200 51 -206 44
-4 -4 -13 -25 -20 -47 l-14 -40 -3 58 c-2 31 -4 57 -6 57 -1 0 -31 -11 -66
-25 -74 -29 -80 -30 -80 -11 0 10 -11 13 -42 10 -129 -10 -168 -11 -168 -3 0
4 -30 5 -66 2 -65 -6 -66 -6 -60 15 5 16 4 21 -6 17 -7 -2 -69 -11 -138 -20
-114 -14 -127 -18 -148 -43 l-23 -27 4 26 4 27 -106 5 c-58 3 -139 0 -179 -6
-55 -8 -75 -8 -81 1 -5 8 -44 8 -156 0 -167 -13 -265 -6 -265 18 0 10 -6 13
-17 10 -36 -10 -140 -25 -224 -31 l-85 -7 -44 -149 c-23 -82 -45 -148 -47
-146 -3 4 31 265 43 320 6 31 15 30 -116 10z m63 -120 c-7 -48 -22 -178 -33
-288 -11 -110 -22 -216 -24 -235 l-4 -35 13 30 c8 17 41 125 75 240 34 116 65
221 70 235 5 14 14 43 19 66 l11 40 126 12 c70 7 129 11 130 9 2 -1 -1 -70 -6
-152 -5 -83 -12 -232 -15 -331 l-7 -181 -47 -6 c-25 -3 -61 -9 -79 -13 l-34
-7 7 82 8 81 -41 0 c-40 0 -42 -1 -52 -42 -23 -91 -24 -92 -66 -99 -113 -18
-114 -18 -114 -2 0 15 -20 15 -127 -4 -29 -5 -33 -2 -33 16 0 37 31 304 36
313 3 4 2 8 -3 8 -4 0 -22 -42 -40 -93 -89 -255 -85 -247 -118 -247 -16 0 -40
-3 -52 -6 -22 -6 -23 -4 -22 52 0 33 6 112 13 177 12 118 6 152 -14 75 -18
-72 -81 -292 -83 -294 -1 0 -37 -4 -79 -7 l-77 -7 14 43 c65 204 176 568 181
593 l6 31 96 6 c53 3 98 4 100 2 4 -4 -36 -298 -44 -327 -3 -10 -2 -18 3 -18
4 0 19 28 32 63 60 160 105 273 111 280 8 9 160 36 171 31 3 -2 -1 -42 -8 -91z
m1404 15 c-29 -40 -79 -110 -109 -155 -54 -80 -56 -84 -46 -125 10 -49 70
-248 87 -291 6 -16 11 -29 11 -31 0 -1 -44 -2 -97 -1 l-98 0 -11 70 c-7 39
-15 96 -19 129 -4 36 -10 55 -16 49 -5 -5 -20 -63 -33 -128 -25 -132 -21 -128
-120 -140 -56 -7 -57 -7 -52 16 30 132 82 415 96 519 19 153 10 140 96 140 86
0 83 6 58 -115 -9 -42 -14 -78 -12 -80 2 -2 32 40 66 95 l63 99 67 6 c37 4 72
8 77 10 44 15 43 2 -8 -67z m577 -193 c4 11 25 69 46 129 22 59 40 110 42 111
2 2 35 -3 74 -12 l72 -16 -36 -71 c-125 -253 -177 -371 -197 -449 -13 -49 -25
-91 -28 -93 -5 -6 -151 -24 -155 -19 -2 2 6 48 18 102 22 94 22 104 11 302 -6
112 -8 207 -4 211 4 4 37 19 73 33 l65 26 5 -137 c3 -89 8 -130 14 -117z
m-2528 228 c-6 -23 -47 -229 -81 -408 -49 -263 -35 -238 -137 -250 -66 -7 -66
-7 -44 71 8 27 38 169 67 316 l52 266 56 10 c87 15 93 14 87 -5z m1354 12 c0
-20 -24 -113 -32 -122 -6 -7 -25 -13 -43 -13 -36 0 -32 9 -56 -115 -18 -95
-59 -359 -59 -381 0 -19 -8 -23 -80 -34 -45 -7 -83 -10 -86 -7 -3 3 6 61 20
129 31 151 75 402 71 406 -2 2 -22 6 -44 9 l-41 6 0 58 0 58 133 4 c72 1 151
4 175 5 23 1 42 0 42 -3z m170 2 c0 -2 -20 -105 -44 -228 -24 -123 -52 -268
-62 -322 -12 -65 -23 -101 -33 -106 -23 -12 -141 -23 -141 -14 0 5 5 24 10 43
15 50 45 195 86 410 20 102 39 188 43 192 9 10 141 33 141 25z m626 -14 c-3
-10 -14 -63 -25 -118 -12 -55 -32 -154 -46 -220 -39 -179 -40 -189 -20 -205
15 -13 20 -11 39 11 18 21 32 77 71 275 26 137 51 252 55 257 3 4 37 10 74 14
64 6 68 5 63 -13 -4 -10 -20 -95 -37 -189 -54 -298 -75 -370 -124 -423 -49
-55 -153 -84 -220 -62 -50 16 -76 53 -76 107 0 36 58 400 86 540 6 29 10 32
48 36 104 9 118 8 112 -10z m-230 -220 c-8 -43 -20 -115 -27 -161 -6 -46 -15
-80 -20 -75 -4 4 -17 45 -29 91 l-22 83 27 42 c44 67 77 109 82 103 2 -2 -2
-40 -11 -83z"/>
<path d="M3547 1492 c-20 -81 -37 -153 -37 -160 0 -10 59 -19 60 -9 0 1 7 70
15 152 17 178 17 165 7 165 -4 0 -24 -67 -45 -148z"/>
<path d="M6300 1795 c-36 -7 -107 -16 -157 -20 -65 -5 -93 -11 -93 -20 0 -12
-18 -75 -115 -400 -32 -108 -33 -110 -64 -113 -38 -4 -42 -34 35 313 29 131
52 240 51 242 -3 3 -230 -26 -232 -30 -19 -34 -141 -734 -130 -745 2 -2 29 4
60 12 31 9 85 20 120 23 58 5 65 4 65 -12 0 -13 6 -16 23 -12 12 3 65 11 118
17 l96 12 12 52 c24 106 46 103 33 -5 -5 -41 -8 -76 -6 -78 1 -1 54 5 116 16
l113 19 34 -23 c25 -17 48 -23 90 -23 81 0 122 15 176 62 47 41 48 42 42 15
-23 -92 -33 -86 97 -55 50 12 94 27 97 32 4 4 10 32 14 60 6 40 9 47 15 31 5
-11 9 -44 9 -72 1 -29 3 -53 4 -53 2 0 39 9 82 20 99 25 105 25 102 -2 -2 -22
1 -23 88 -23 80 0 97 3 155 31 71 34 152 101 181 149 25 40 25 19 0 -100 -10
-49 -17 -91 -16 -93 1 -1 51 10 110 25 118 31 119 31 130 117 8 60 17 49 41
-46 9 -38 20 -70 24 -73 5 -3 46 8 91 25 46 16 87 30 92 30 5 0 7 -13 4 -30
-4 -16 -5 -30 -3 -30 26 0 223 33 228 38 4 4 18 50 32 102 17 67 57 162 136
324 61 126 107 232 103 236 -8 7 -205 52 -208 48 -1 -2 -9 -23 -18 -48 l-15
-45 -1 59 c-1 51 -3 57 -18 51 -10 -4 -57 -21 -104 -38 l-85 -30 -30 22 c-19
14 -51 24 -85 28 -56 6 -194 -9 -261 -28 -33 -8 -38 -14 -38 -39 0 -40 -12
-44 -35 -10 -34 50 -90 74 -175 75 -41 0 -94 -3 -117 -7 -38 -7 -41 -6 -36 12
4 17 0 20 -23 20 -31 0 -156 -19 -162 -25 -2 -1 -11 -43 -21 -91 -9 -49 -20
-84 -23 -79 -3 6 -11 50 -18 98 -11 83 -14 88 -34 83 -11 -2 -86 -8 -166 -11
-80 -4 -153 -9 -164 -12 -10 -3 -22 0 -25 6 -5 8 -37 8 -117 0 -60 -6 -110
-12 -111 -13 -1 -1 -11 -44 -23 -96 l-20 -95 5 118 c3 64 2 116 -2 116 -4 -1
-37 -7 -73 -14z m930 -30 c0 -3 -22 -116 -49 -252 -27 -137 -55 -281 -61 -320
-12 -72 -12 -73 -48 -82 -21 -6 -56 -13 -79 -17 l-43 -7 0 44 c0 24 -8 100
-17 169 l-17 125 -12 -55 c-6 -30 -19 -101 -29 -157 -10 -56 -21 -106 -24
-111 -3 -5 -34 -16 -68 -24 -55 -14 -63 -14 -63 -1 0 8 12 74 26 146 47 242
63 331 74 412 17 119 11 112 91 119 39 4 73 6 74 4 2 -2 16 -79 31 -171 15
-91 30 -164 34 -162 4 2 10 26 14 52 3 27 15 91 27 143 11 52 22 105 25 117 2
13 13 23 27 26 33 6 87 8 87 2z m-1326 -67 c-9 -35 -24 -101 -35 -148 -27
-112 -69 -319 -69 -336 0 -10 14 -14 49 -14 47 0 50 -2 53 -27 2 -21 12 0 36
77 54 171 77 249 113 371 l33 115 125 12 c68 7 126 10 128 8 2 -2 -3 -136 -12
-297 -8 -161 -15 -310 -15 -330 0 -36 0 -36 -51 -43 -29 -4 -64 -10 -80 -13
l-27 -5 5 82 6 81 -39 -3 c-38 -3 -39 -3 -59 -70 l-20 -66 -64 -7 c-36 -4 -70
-9 -78 -12 -7 -3 -13 2 -13 12 0 14 -9 15 -72 10 -40 -4 -97 -11 -126 -17 -30
-5 -55 -8 -56 -6 -9 10 105 652 118 665 2 2 121 20 148 22 15 1 15 -4 2 -61z
m2352 -128 c17 47 37 103 44 125 7 22 15 43 19 47 6 6 129 -17 139 -26 2 -2
-29 -71 -69 -152 -124 -257 -137 -290 -159 -375 -11 -45 -21 -84 -23 -85 -5
-5 -152 -23 -156 -18 -2 2 6 48 19 102 22 96 22 103 11 302 -6 112 -8 207 -4
211 5 5 37 19 73 33 l65 24 5 -137 5 -136 31 85z m-1666 167 c0 -13 -40 -209
-79 -387 -26 -117 -27 -156 -4 -165 41 -15 57 33 119 362 l36 192 64 7 c36 3
67 4 70 1 14 -14 -87 -510 -115 -564 -60 -119 -215 -169 -300 -97 -16 13 -32
37 -36 52 -6 28 15 171 61 421 35 193 29 179 77 184 90 8 107 7 107 -6z m956
-16 c93 -69 91 -257 -4 -429 -38 -69 -137 -164 -204 -195 -59 -28 -164 -45
-185 -30 -9 6 -9 20 -2 53 6 25 34 173 63 330 l52 285 29 7 c17 3 73 6 125 5
83 -2 99 -5 126 -26z m445 19 c26 -14 49 -62 49 -102 0 -68 -66 -174 -145
-232 -15 -11 -13 -22 34 -134 28 -67 51 -126 51 -131 0 -10 -9 -14 -87 -41
l-52 -19 -15 52 c-8 29 -25 91 -37 140 -12 48 -25 87 -30 87 -5 0 -9 -7 -9
-16 0 -9 -9 -66 -21 -128 l-21 -112 -70 -18 c-38 -10 -71 -16 -74 -13 -3 2 4
49 15 103 27 136 68 363 82 459 6 44 15 83 19 88 20 23 273 37 311 17z m59
-353 c0 -123 -15 -237 -31 -237 -5 0 -9 6 -9 13 0 6 -20 57 -44 112 l-44 99
54 59 c30 32 54 62 54 68 0 5 5 9 10 9 6 0 10 -48 10 -123z"/>
<path d="M6181 1607 c-9 -28 -38 -141 -66 -264 -5 -20 -1 -23 24 -23 16 0 32
3 34 8 8 11 30 302 24 308 -3 3 -10 -10 -16 -29z"/>
<path d="M7390 1602 c0 -10 -15 -86 -34 -168 -19 -82 -37 -171 -41 -197 -7
-47 -7 -48 13 -36 53 33 132 210 139 315 5 66 4 72 -18 88 -31 21 -59 21 -59
-2z m43 -99 c-11 -60 -52 -177 -59 -170 -2 2 8 58 23 126 18 83 30 118 36 112
7 -7 7 -29 0 -68z"/>
<path d="M7805 1608 c-13 -55 -23 -123 -19 -128 9 -9 95 43 120 73 41 49 21
73 -63 76 -26 1 -34 -4 -38 -21z m75 -34 c-8 -8 -22 -20 -32 -25 -15 -8 -18
-6 -18 16 0 21 4 25 31 25 27 0 30 -2 19 -16z"/>
</g>
</svg>
