<?xml version="1.0" standalone="no"?>
<!DOCTYPE svg PUBLIC "-//W3C//DTD SVG 20010904//EN"
 "http://www.w3.org/TR/2001/REC-SVG-20010904/DTD/svg10.dtd">
<svg version="1.0" xmlns="http://www.w3.org/2000/svg"
 width="100.000000pt" height="100.000000pt" viewBox="0 0 100.000000 100.000000"
 preserveAspectRatio="xMidYMid meet">

<g transform="translate(0.000000,100.000000) scale(0.100000,-0.100000)"
fill="#000000" stroke="none">
<path d="M167 984 c-31 -10 -64 -30 -92 -59 -69 -69 -75 -100 -75 -425 0 -325
6 -356 75 -425 65 -65 110 -75 324 -73 115 1 155 4 116 8 l-60 6 55 5 55 5
-52 2 c-29 1 -53 6 -53 11 0 6 24 12 53 14 l52 3 -52 2 c-51 2 -77 21 -30 23
12 0 16 3 9 6 -8 3 -53 -2 -101 -12 -87 -17 -88 -17 -130 5 -24 12 -40 24 -37
27 3 3 21 -4 40 -15 35 -21 35 -21 128 -1 51 10 94 19 96 19 1 0 2 15 2 33 0
36 -24 77 -45 77 -7 0 -37 11 -65 24 -40 18 -65 23 -101 20 l-49 -4 0 270 0
270 173 0 172 0 93 -93 92 -92 0 -123 0 -122 -70 0 -70 0 0 105 0 105 35 0
c29 0 37 -5 45 -25 13 -35 20 -31 20 10 l0 35 -114 0 c-112 0 -142 -8 -118
-32 6 -6 12 -6 16 1 4 6 23 11 42 11 l34 0 0 -105 0 -105 -39 0 c-22 0 -42 -3
-44 -7 -3 -5 70 -8 161 -8 l167 0 3 -37 3 -38 -173 -3 -173 -3 173 -2 172 -2
0 -125 c0 -101 3 -125 14 -125 28 0 100 66 125 115 26 49 26 51 29 342 4 346
-1 377 -73 448 -69 70 -100 75 -429 74 -219 0 -292 -4 -329 -15z m197 -845
c35 6 76 11 92 10 28 0 28 -1 6 -10 -13 -5 -56 -12 -94 -16 -63 -5 -76 -3
-114 18 -24 13 -44 27 -44 32 0 5 21 -3 46 -18 43 -26 49 -26 108 -16z"/>
<path d="M308 594 c20 -14 22 -23 22 -119 0 -96 -2 -105 -22 -119 -21 -15 -20
-16 32 -16 32 0 50 4 42 8 -9 6 -13 41 -13 121 -1 98 2 114 18 126 16 13 12
14 -42 15 -57 0 -58 -1 -37 -16z"/>
<path d="M633 333 c15 -2 39 -2 55 0 15 2 2 4 -28 4 -30 0 -43 -2 -27 -4z"/>
<path d="M570 320 c0 -5 5 -10 10 -10 6 0 10 5 10 10 0 6 -4 10 -10 10 -5 0
-10 -4 -10 -10z"/>
<path d="M730 320 c0 -5 5 -10 10 -10 6 0 10 5 10 10 0 6 -4 10 -10 10 -5 0
-10 -4 -10 -10z"/>
<path d="M760 320 c0 -5 5 -10 10 -10 6 0 10 5 10 10 0 6 -4 10 -10 10 -5 0
-10 -4 -10 -10z"/>
<path d="M633 303 c15 -2 39 -2 55 0 15 2 2 4 -28 4 -30 0 -43 -2 -27 -4z"/>
<path d="M584 208 l-19 -23 23 19 c21 18 27 26 19 26 -2 0 -12 -10 -23 -22z"/>
<path d="M729 208 c16 -20 9 -23 -22 -7 -21 9 -21 9 -3 -5 11 -9 15 -20 10
-28 -6 -9 -3 -9 10 1 15 13 19 13 27 0 5 -9 9 -10 9 -2 0 7 -10 22 -22 35 -13
13 -17 16 -9 6z"/>
<path d="M648 213 c6 -2 18 -2 25 0 6 3 1 5 -13 5 -14 0 -19 -2 -12 -5z"/>
<path d="M581 139 c-1 -15 7 -35 17 -46 9 -10 13 -13 8 -6 -5 7 -12 28 -16 46
-7 29 -8 30 -9 6z"/>
<path d="M701 140 c0 -8 3 -22 9 -30 6 -9 5 -20 -3 -30 -10 -13 -10 -13 5 -2
9 8 23 11 30 7 7 -4 5 0 -4 8 -10 7 -22 25 -27 38 -5 13 -10 17 -10 9z"/>
<path d="M643 63 c9 -2 25 -2 35 0 9 3 1 5 -18 5 -19 0 -27 -2 -17 -5z"/>
<path d="M607 49 c7 -7 15 -10 18 -7 3 3 -2 9 -12 12 -14 6 -15 5 -6 -5z"/>
<path d="M700 50 c-9 -6 -10 -10 -3 -10 6 0 15 5 18 10 8 12 4 12 -15 0z"/>
</g>
</svg>
